<svg width="100" height="100" viewBox="0 0 100 100" fill="none" xmlns="http://www.w3.org/2000/svg">
<g id="Clubs">
<g id="&#226;&#153;&#163; clubs">
<g id="fill">
<path d="M76.8667 46.0078C75.7659 47.9663 73.6683 49.2895 71.2617 49.2895C67.7131 49.2895 64.8364 46.4128 64.8364 42.8643C64.8364 39.6277 67.2295 36.9501 70.3427 36.5042C70.4096 35.8306 70.4439 35.1464 70.4439 34.4533C70.4439 23.1624 61.2909 14.0093 50 14.0093C38.7091 14.0093 29.5561 23.1624 29.5561 34.4533C29.5561 35.1464 29.5904 35.8306 29.6573 36.5042C32.7705 36.9501 35.1635 39.6277 35.1635 42.8643C35.1635 46.4128 32.2869 49.2895 28.7383 49.2895C26.3317 49.2895 24.2341 47.9663 23.1333 46.0078C13.9188 47.9891 7.00934 56.1868 7.00934 65.9951C7.00934 77.286 16.1624 86.439 27.4533 86.439C35.0513 86.439 41.6891 82.2947 45.2159 76.1254C44.1955 74.9879 43.5748 73.4846 43.5748 71.8362C43.5748 68.2877 46.4514 65.411 50 65.411C53.5486 65.411 56.4252 68.2877 56.4252 71.8362C56.4252 73.4846 55.8045 74.9879 54.7841 76.1254C58.3109 82.2947 64.9487 86.439 72.5467 86.439C83.8376 86.439 92.9906 77.286 92.9906 65.9951C92.9906 56.1868 86.0812 47.9891 76.8667 46.0078Z" fill="#2C2C2C"/>
<path d="M71.2617 45.7848C70.6706 45.7848 70.1206 45.6092 69.6609 45.3074C69.2006 45.0052 68.8309 44.5765 68.6011 44.0707C68.4341 43.7029 68.3411 43.2945 68.3411 42.8643C68.3411 41.8889 68.8192 41.0252 69.5539 40.4948C70.0341 40.148 70.624 39.9437 71.2617 39.9437C72.8747 39.9437 74.1822 41.2513 74.1822 42.8643C74.1822 44.0273 73.5025 45.0315 72.5186 45.5013C72.1379 45.683 71.7117 45.7848 71.2617 45.7848Z" fill="#2C2C2C"/>
<path d="M52.9206 71.8362C52.9206 72.0083 52.9057 72.1768 52.8771 72.3407C52.6381 73.7133 51.4409 74.7568 50 74.7568C48.5591 74.7568 47.3619 73.7133 47.1228 72.3407C47.0943 72.1768 47.0794 72.0083 47.0794 71.8362C47.0794 70.712 47.7146 69.7361 48.6457 69.248C49.0505 69.0357 49.5112 68.9157 50 68.9157C50.4888 68.9157 50.9495 69.0357 51.3543 69.248C52.2854 69.7361 52.9206 70.712 52.9206 71.8362Z" fill="#2C2C2C"/>
<path d="M28.7383 45.7848C28.2883 45.7848 27.8621 45.683 27.4814 45.5013C26.4975 45.0315 25.8177 44.0273 25.8177 42.8643C25.8177 41.2513 27.1253 39.9437 28.7383 39.9437C29.3759 39.9437 29.9658 40.148 30.4461 40.4948C31.1808 41.0252 31.6589 41.8889 31.6589 42.8643C31.6589 43.2945 31.5659 43.7029 31.3988 44.0707C31.1691 44.5765 30.7994 45.0052 30.3391 45.3074C29.8794 45.6092 29.3294 45.7848 28.7383 45.7848Z" fill="#2C2C2C"/>
</g>
<path id="stroke" fill-rule="evenodd" clip-rule="evenodd" d="M47.1534 81.5774C47.9851 80.5275 48.7345 79.4094 49.3922 78.2331C49.5922 78.2519 49.795 78.2615 50 78.2615C50.205 78.2615 50.4078 78.2519 50.6079 78.2331C51.2655 79.4094 52.0149 80.5275 52.8466 81.5774C57.4471 87.3858 64.5618 91.1119 72.5467 91.1119C86.4184 91.1119 97.6636 79.8667 97.6636 65.9951C97.6636 54.3196 89.6972 44.5048 78.9036 41.6897C78.4447 41.57 77.9807 41.463 77.512 41.369C77.1404 39.8099 76.2006 38.4713 74.9236 37.584C74.976 37.1622 75.018 36.7372 75.0493 36.3093C75.0941 35.6964 75.1168 35.0775 75.1168 34.4533C75.1168 20.5816 63.8716 9.33646 50 9.33646C36.1284 9.33646 24.8832 20.5816 24.8832 34.4533C24.8832 35.0775 24.906 35.6964 24.9507 36.3093C24.982 36.7372 25.024 37.1622 25.0764 37.584C23.7994 38.4713 22.8596 39.8099 22.488 41.369C22.0193 41.463 21.5553 41.57 21.0964 41.6897C10.3028 44.5048 2.33646 54.3196 2.33646 65.9951C2.33646 79.8667 13.5816 91.1119 27.4533 91.1119C35.4383 91.1119 42.553 87.3858 47.1534 81.5774ZM71.2617 45.7848C70.6706 45.7848 70.1206 45.6093 69.6609 45.3074C69.2006 45.0052 68.8309 44.5765 68.6012 44.0707C68.4341 43.703 68.3411 43.2945 68.3411 42.8643C68.3411 41.8889 68.8192 41.0252 69.5539 40.4948C70.0341 40.148 70.6241 39.9437 71.2617 39.9437C72.8747 39.9437 74.1823 41.2513 74.1823 42.8643C74.1823 44.0273 73.5025 45.0315 72.5186 45.5013C72.1379 45.6831 71.7117 45.7848 71.2617 45.7848ZM64.8365 42.8643C64.8365 39.6277 67.2295 36.9501 70.3427 36.5043C70.4096 35.8306 70.4439 35.1465 70.4439 34.4533C70.4439 23.1624 61.2909 14.0094 50 14.0094C38.7091 14.0094 29.5561 23.1624 29.5561 34.4533C29.5561 35.1465 29.5904 35.8306 29.6573 36.5043C32.7705 36.9501 35.1636 39.6277 35.1636 42.8643C35.1636 46.4128 32.2869 49.2895 28.7383 49.2895C26.3317 49.2895 24.2341 47.9663 23.1333 46.0078C13.9188 47.9891 7.00935 56.1868 7.00935 65.9951C7.00935 77.286 16.1624 86.439 27.4533 86.439C35.0513 86.439 41.6891 82.2947 45.2159 76.1254C44.1955 74.988 43.5748 73.4846 43.5748 71.8362C43.5748 68.2877 46.4514 65.411 50 65.411C53.5486 65.411 56.4252 68.2877 56.4252 71.8362C56.4252 73.4846 55.8045 74.988 54.7841 76.1254C58.3109 82.2947 64.9487 86.439 72.5467 86.439C83.8376 86.439 92.9907 77.286 92.9907 65.9951C92.9907 56.1868 86.0812 47.9891 76.8667 46.0078C75.7659 47.9663 73.6683 49.2895 71.2617 49.2895C67.7131 49.2895 64.8365 46.4128 64.8365 42.8643ZM52.9206 71.8362C52.9206 72.0083 52.9057 72.1769 52.8772 72.3407C52.6381 73.7133 51.4409 74.7568 50 74.7568C48.5591 74.7568 47.3619 73.7133 47.1229 72.3407C47.0943 72.1769 47.0794 72.0083 47.0794 71.8362C47.0794 70.712 47.7146 69.7362 48.6457 69.248C49.0505 69.0357 49.5112 68.9157 50 68.9157C50.4888 68.9157 50.9495 69.0357 51.3543 69.248C52.2854 69.7362 52.9206 70.712 52.9206 71.8362ZM27.4814 45.5013C27.8621 45.6831 28.2883 45.7848 28.7383 45.7848C29.3294 45.7848 29.8794 45.6093 30.3391 45.3074C30.7994 45.0052 31.1691 44.5765 31.3988 44.0707C31.5659 43.703 31.6589 43.2945 31.6589 42.8643C31.6589 41.8889 31.1808 41.0252 30.4461 40.4948C29.9659 40.148 29.376 39.9437 28.7383 39.9437C27.1253 39.9437 25.8178 41.2513 25.8178 42.8643C25.8178 44.0273 26.4975 45.0315 27.4814 45.5013Z" fill="white"/>
<path id="stroke 2" fill-rule="evenodd" clip-rule="evenodd" d="M48.985 83.0281C49.337 82.5837 49.6755 82.1281 50 81.6619C50.3245 82.1281 50.663 82.5837 51.015 83.0281C56.0396 89.3719 63.8178 93.4484 72.5467 93.4484C87.7088 93.4484 100 81.1571 100 65.9951C100 53.2303 91.2903 42.5057 79.4932 39.4289C79.4297 39.4123 79.3662 39.396 79.3026 39.3799C78.8439 38.3225 78.1838 37.3749 77.3717 36.5846C77.3743 36.5495 77.377 36.5145 77.3795 36.4795C77.4284 35.81 77.4533 35.1343 77.4533 34.4533C77.4533 19.2912 65.162 7 50 7C34.838 7 22.5467 19.2912 22.5467 34.4533C22.5467 35.1344 22.5716 35.8101 22.6205 36.4795C22.623 36.5145 22.6257 36.5495 22.6283 36.5846C21.8162 37.3749 21.1561 38.3225 20.6974 39.3799C20.6338 39.396 20.5702 39.4123 20.5068 39.4289C8.70968 42.5057 0 53.2303 0 65.9951C0 81.1571 12.2912 93.4484 27.4533 93.4484C36.1822 93.4484 43.9604 89.3719 48.985 83.0281ZM52.8466 81.5774C52.318 80.9101 51.8226 80.2152 51.3629 79.4953C51.3103 79.413 51.2582 79.3303 51.2065 79.2473C50.9993 78.9144 50.7997 78.5762 50.6079 78.2331C50.4078 78.2518 50.205 78.2615 50 78.2615C49.795 78.2615 49.5922 78.2518 49.3921 78.2331C49.2003 78.5762 49.0007 78.9144 48.7935 79.2473C48.7418 79.3303 48.6897 79.413 48.6371 79.4953C48.1774 80.2152 47.682 80.9101 47.1534 81.5774C42.5529 87.3858 35.4383 91.1119 27.4533 91.1119C13.5816 91.1119 2.33645 79.8667 2.33645 65.9951C2.33645 54.3196 10.3028 44.5048 21.0964 41.6897C21.5553 41.57 22.0193 41.463 22.488 41.369C22.8596 39.8099 23.7994 38.4713 25.0764 37.584C25.024 37.1622 24.982 36.7372 24.9507 36.3093C24.906 35.6964 24.8832 35.0775 24.8832 34.4533C24.8832 20.5816 36.1284 9.33645 50 9.33645C63.8716 9.33645 75.1168 20.5816 75.1168 34.4533C75.1168 35.0775 75.0941 35.6964 75.0493 36.3093C75.018 36.7372 74.976 37.1622 74.9236 37.584C76.2006 38.4713 77.1404 39.8099 77.512 41.369C77.9807 41.463 78.4447 41.57 78.9036 41.6897C89.6972 44.5048 97.6636 54.3196 97.6636 65.9951C97.6636 79.8667 86.4184 91.1119 72.5467 91.1119C64.5617 91.1119 57.4471 87.3858 52.8466 81.5774Z" fill="#2C2C2C"/>
</g>
</g>
</svg>
