<svg width="100" height="100" viewBox="0 0 100 100" fill="none" xmlns="http://www.w3.org/2000/svg">
<path d="M46.5795 79.5064L25.7015 55.1835C27.2139 54.008 28.1869 52.1714 28.1869 50.1075C28.1869 48.1203 27.2848 46.3437 25.8676 45.1652L46.5924 20.9518C47.6546 21.7285 48.9642 22.187 50.3809 22.187C51.7989 22.187 53.1096 21.7277 54.1723 20.9497L74.8988 45.1651C73.4817 46.3437 72.5795 48.1203 72.5795 50.1075C72.5795 52.1714 73.5525 54.008 75.0649 55.1835L54.1852 79.5085C53.1201 78.7248 51.8046 78.2617 50.3809 78.2617C48.9585 78.2617 47.644 78.724 46.5795 79.5064Z" fill="#F24E1E"/>
<path fill-rule="evenodd" clip-rule="evenodd" d="M20.9415 43.7341L44.0322 16.7565C43.9818 16.4323 43.9557 16.1 43.9557 15.7617C43.9557 12.2131 46.8323 9.33646 50.3809 9.33646H50.3832C53.9307 9.33769 56.8061 12.2139 56.8061 15.7617C56.8061 16.0985 56.7802 16.4292 56.7303 16.752L79.8249 43.7341C82.9861 44.1369 85.4299 46.8368 85.4299 50.1075C85.4299 50.1652 85.4292 50.2227 85.4276 50.28L85.4299 50.2826L85.4275 50.2855C85.3438 53.3624 83.097 55.8993 80.1528 56.4304L56.733 83.7146C56.7812 84.0317 56.8061 84.3564 56.8061 84.6869C56.8061 88.2347 53.9307 91.1109 50.3832 91.1122H50.3809C46.8323 91.1122 43.9557 88.2355 43.9557 84.6869C43.9557 84.3548 43.9809 84.0286 44.0295 83.7101L20.6135 56.4304C17.6694 55.8993 15.4225 53.3624 15.3389 50.2855L15.3365 50.2826L15.3387 50.28C15.3372 50.2227 15.3365 50.1652 15.3365 50.1075C15.3365 46.8368 17.7802 44.1369 20.9415 43.7341ZM46.5795 79.5064L25.7015 55.1835C27.2139 54.0079 28.1869 52.1713 28.1869 50.1075C28.1869 48.1202 27.2847 46.3436 25.8676 45.1651L46.5923 20.9517C47.6546 21.7284 48.9642 22.1869 50.3809 22.1869C51.7989 22.1869 53.1096 21.7276 54.1723 20.9496L74.8988 45.1651C73.4816 46.3436 72.5794 48.1202 72.5794 50.1075C72.5794 52.1713 73.5525 54.0079 75.0649 55.1835L54.1851 79.5084C53.1201 78.7247 51.8046 78.2617 50.3809 78.2617C48.9585 78.2617 47.644 78.7239 46.5795 79.5064ZM50.3809 18.6823C49.8348 18.6823 49.3236 18.5323 48.8864 18.2714C48.0323 17.7618 47.4603 16.8285 47.4603 15.7617C47.4603 14.1487 48.7679 12.8411 50.3809 12.8411C51.9939 12.8411 53.3015 14.1487 53.3015 15.7617C53.3015 16.8273 52.7308 17.7596 51.8784 18.2696C51.4405 18.5317 50.9283 18.6823 50.3809 18.6823ZM48.8769 82.1829C48.0281 82.6938 47.4603 83.6241 47.4603 84.6869C47.4603 86.2999 48.7679 87.6075 50.3809 87.6075C51.9939 87.6075 53.3015 86.2999 53.3015 84.6869C53.3015 83.6253 52.735 82.696 51.8879 82.1847C51.448 81.9192 50.9323 81.7664 50.3809 81.7664C49.8308 81.7664 49.3162 81.9185 48.8769 82.1829ZM24.6823 50.1075C24.6823 51.1078 24.1794 51.9906 23.4126 52.517C22.943 52.8394 22.3744 53.028 21.7617 53.028C20.1487 53.028 18.8411 51.7205 18.8411 50.1075C18.8411 48.4945 20.1487 47.1869 21.7617 47.1869C22.4528 47.1869 23.0879 47.427 23.588 47.8283C24.2552 48.3635 24.6823 49.1856 24.6823 50.1075ZM77.3537 52.517C76.587 51.9906 76.0841 51.1078 76.0841 50.1075C76.0841 49.1856 76.5112 48.3635 77.1783 47.8283C77.6785 47.427 78.3135 47.1869 79.0047 47.1869C80.6177 47.1869 81.9252 48.4945 81.9252 50.1075C81.9252 51.7205 80.6177 53.028 79.0047 53.028C78.392 53.028 77.8234 52.8394 77.3537 52.517Z" fill="white"/>
<path fill-rule="evenodd" clip-rule="evenodd" d="M13 50.1075C13 50.1461 13.0003 50.1847 13.0008 50.2232C12.9987 50.3046 13.0009 50.3862 13.0073 50.4674C13.1629 54.3079 15.7868 57.507 19.335 58.5281L41.6214 84.4918C41.6199 84.5567 41.6192 84.6217 41.6192 84.6869C41.6192 89.5259 45.542 93.4486 50.3809 93.4486H50.384C55.2215 93.4469 59.1426 89.5248 59.1426 84.6869C59.1426 84.6235 59.1419 84.5602 59.1406 84.497L81.4314 58.5281C84.9796 57.507 87.6034 54.3079 87.7591 50.4675C87.7655 50.3862 87.7677 50.3046 87.7656 50.2232C87.7661 50.1846 87.7664 50.1461 87.7664 50.1075C87.7664 45.9774 84.9106 42.5175 81.0651 41.5899L59.14 15.9742C59.1417 15.9036 59.1426 15.8327 59.1426 15.7617C59.1426 10.9238 55.2215 7.00168 50.384 7H50.3809C45.542 7 41.6192 10.9227 41.6192 15.7617C41.6192 15.8344 41.6201 15.907 41.6219 15.9794L19.7013 41.5899C15.8558 42.5175 13 45.9774 13 50.1075ZM15.3389 50.2854L15.3364 50.2826L15.3387 50.28C15.3372 50.2227 15.3364 50.1652 15.3364 50.1075C15.3364 46.8368 17.7802 44.1369 20.9415 43.7341L44.0322 16.7565C43.9818 16.4323 43.9557 16.1 43.9557 15.7617C43.9557 12.2131 46.8323 9.33645 50.3809 9.33645H50.3832C53.9307 9.33768 56.8061 12.2139 56.8061 15.7617C56.8061 16.0985 56.7802 16.4292 56.7303 16.752L79.8249 43.7341C82.9861 44.1369 85.4299 46.8368 85.4299 50.1075C85.4299 50.1652 85.4292 50.2227 85.4276 50.28L85.4299 50.2826L85.4275 50.2854C85.3438 53.3624 83.097 55.8993 80.1528 56.4304L56.733 83.7146C56.7812 84.0317 56.8061 84.3564 56.8061 84.6869C56.8061 88.2347 53.9307 91.1109 50.3832 91.1122H50.3809C46.8323 91.1122 43.9557 88.2355 43.9557 84.6869C43.9557 84.3548 43.9809 84.0286 44.0295 83.71L20.6135 56.4304C17.6694 55.8993 15.4225 53.3624 15.3389 50.2854Z" fill="#F24E1E"/>
<path d="M50.3809 12.8411C51.9939 12.8411 53.3015 14.1487 53.3015 15.7617C53.3015 17.3747 51.9939 18.6822 50.3809 18.6822C48.7679 18.6822 47.4603 17.3747 47.4603 15.7617C47.4603 14.1487 48.7679 12.8411 50.3809 12.8411Z" fill="#F24E1E"/>
<path d="M21.7617 47.1869C23.3747 47.1869 24.6822 48.4945 24.6822 50.1075C24.6822 51.7205 23.3747 53.028 21.7617 53.028C20.1487 53.028 18.8411 51.7205 18.8411 50.1075C18.8411 48.4945 20.1487 47.1869 21.7617 47.1869Z" fill="#F24E1E"/>
<path d="M79.0047 47.1869C80.6177 47.1869 81.9252 48.4945 81.9252 50.1075C81.9252 51.7205 80.6177 53.028 79.0047 53.028C77.3917 53.028 76.0841 51.7205 76.0841 50.1075C76.0841 48.4945 77.3917 47.1869 79.0047 47.1869Z" fill="#F24E1E"/>
<path d="M53.3015 84.6869C53.3015 86.2999 51.9939 87.6075 50.3809 87.6075C48.7679 87.6075 47.4603 86.2999 47.4603 84.6869C47.4603 83.0739 48.7679 81.7664 50.3809 81.7664C51.9939 81.7664 53.3015 83.0739 53.3015 84.6869Z" fill="#F24E1E"/>
</svg>
