<svg width="100" height="100" viewBox="0 0 100 100" fill="none" xmlns="http://www.w3.org/2000/svg">
<g id="Hearts">
<g id="&#226;&#153;&#165; hearts">
<g id="fill">
<path d="M83.7432 20.2601C75.964 12.3636 64.9602 12.5569 56.2302 17.5706C56.3575 18.0753 56.4252 18.6037 56.4252 19.1479C56.4252 22.6966 53.5485 25.5733 50 25.5733C46.4514 25.5733 43.5747 22.6966 43.5747 19.1479C43.5747 18.6037 43.6424 18.0752 43.7698 17.5706C35.0397 12.5568 24.0358 12.3637 16.2568 20.2601C12.2559 24.3213 10.4033 29.3274 10.2929 34.5187C13.1022 35.2056 15.1869 37.7396 15.1869 40.7605C15.1869 42.8399 14.1992 44.6885 12.6673 45.8629C13.8543 48.5771 15.4578 51.1854 17.415 53.5702C25.4168 63.32 36.0674 71.8384 46.4404 79.335C47.4589 78.6566 48.6821 78.2612 49.9977 78.2612C51.3143 78.2612 52.5384 78.6572 53.5574 79.3366C63.931 71.8396 74.5826 63.3207 82.5849 53.5702C84.5421 51.1854 86.1456 48.5771 87.3326 45.8629C85.8008 44.6885 84.813 42.8399 84.813 40.7605C84.813 37.7396 86.8978 35.2056 89.707 34.5187C89.5966 29.3274 87.744 24.3213 83.7432 20.2601Z" fill="#F24E1E"/>
<path d="M48.2299 21.4712C47.7106 21.0749 47.3281 20.5085 47.1656 19.8551C47.1656 19.8551 47.1656 19.8551 47.1656 19.8551C47.1093 19.6287 47.0794 19.3918 47.0794 19.1479C47.0794 17.5349 48.387 16.2273 50 16.2273C51.613 16.2273 52.9206 17.5349 52.9206 19.1479C52.9206 19.8634 52.6633 20.5188 52.2362 21.0266C51.767 21.5845 51.0929 21.9643 50.3299 22.0501C50.2216 22.0623 50.1115 22.0685 50 22.0685C49.8884 22.0685 49.7783 22.0623 49.67 22.0501C49.1323 21.9896 48.6387 21.7832 48.2299 21.4712Z" fill="#F24E1E"/>
<path d="M49.9977 81.766C50.0499 81.766 50.1018 81.7673 50.1534 81.77C51.694 81.8509 52.9183 83.1258 52.9183 84.6866C52.9183 86.2996 51.6107 87.6072 49.9977 87.6072C48.3847 87.6072 47.0772 86.2996 47.0772 84.6866C47.0772 83.0736 48.3847 81.766 49.9977 81.766Z" fill="#F24E1E"/>
<path d="M88.6727 42.1573C88.4464 41.7424 88.3177 41.2664 88.3177 40.7605C88.3177 39.8125 88.7694 38.9699 89.4693 38.4364C89.9603 38.0621 90.5733 37.8399 91.2383 37.8399C92.8513 37.8399 94.1589 39.1475 94.1589 40.7605C94.1589 42.3735 92.8513 43.6811 91.2383 43.6811C90.1313 43.6811 89.1681 43.0652 88.6727 42.1573Z" fill="#F24E1E"/>
<path d="M8.76168 43.6811C10.3747 43.6811 11.6822 42.3735 11.6822 40.7605C11.6822 39.1475 10.3747 37.8399 8.76168 37.8399C7.1487 37.8399 5.84112 39.1475 5.84112 40.7605C5.84112 42.3735 7.1487 43.6811 8.76168 43.6811Z" fill="#F24E1E"/>
</g>
<path id="stroke" fill-rule="evenodd" clip-rule="evenodd" d="M94.3913 35.1608C94.4521 28.6842 92.2806 22.2641 87.0689 16.9738C77.2526 7.00933 63.7401 7.73377 53.5124 13.7669C52.5029 13.1066 51.2963 12.7227 50 12.7227C48.7037 12.7227 47.4971 13.1066 46.4876 13.7669C36.2599 7.73366 22.7473 7.00946 12.9311 16.9738C7.71941 22.2641 5.54788 28.6842 5.60872 35.1608C3.65536 36.263 2.33645 38.3578 2.33645 40.7606C2.33645 44.1071 4.89472 46.8561 8.16219 47.1584C9.5646 50.5334 11.4909 53.721 13.8059 56.5417C22.2013 66.7713 33.2695 75.5907 43.7539 83.1643C43.6353 83.6523 43.5725 84.1622 43.5725 84.6867C43.5725 88.2354 46.4492 91.1121 49.9977 91.1121C53.5463 91.1121 56.423 88.2354 56.423 84.6867C56.423 84.1632 56.3603 83.6543 56.2422 83.1671C66.7278 75.5929 77.7976 66.7725 86.1941 56.5417C88.5091 53.721 90.4354 50.5334 91.8378 47.1584C95.1053 46.8561 97.6636 44.1071 97.6636 40.7606C97.6636 38.3578 96.3446 36.263 94.3913 35.1608ZM56.2302 17.5708C56.2302 17.5708 56.2302 17.5707 56.2302 17.5708C64.9603 12.557 75.964 12.3637 83.7432 20.2602C83.7431 20.2601 83.7432 20.2602 83.7432 20.2602C87.4939 24.0675 89.3567 28.7055 89.6658 33.5479C89.6864 33.8707 89.7001 34.1944 89.707 34.5189C86.8978 35.2057 84.8131 37.7397 84.8131 40.7606C84.8131 42.5801 85.5693 44.2229 86.7846 45.3919C86.9582 45.5589 87.1412 45.7162 87.3326 45.863C86.1456 48.5772 84.5422 51.1855 82.5849 53.5704C74.5826 63.3208 63.9311 71.8398 53.5574 79.3368C52.5384 78.6574 51.3143 78.2614 49.9977 78.2614C48.6822 78.2614 47.4589 78.6568 46.4404 79.3352C36.0674 71.8386 25.4168 63.3202 17.4151 53.5704C16.4974 52.4522 15.6575 51.2849 14.9018 50.0806C14.0457 48.7164 13.2978 47.3047 12.6674 45.8631C12.6674 45.8631 12.6673 45.863 12.6674 45.8631C14.1992 44.6887 15.1869 42.8399 15.1869 40.7605C15.1869 40.5625 15.1779 40.3665 15.1604 40.173C15.1111 39.6287 14.9938 39.1041 14.8173 38.6075C14.0993 36.5882 12.3999 35.034 10.293 34.5189C10.4034 29.3276 12.2559 24.3214 16.2568 20.2602C24.0358 12.3638 35.0397 12.5568 43.7698 17.5706C43.6424 18.0753 43.5748 18.6038 43.5748 19.1481C43.5748 19.3424 43.5834 19.5347 43.6003 19.7247C43.6605 20.4018 43.8258 21.0488 44.0797 21.6491C45.0551 23.9552 47.3386 25.5733 50 25.5733C53.5485 25.5733 56.4252 22.6966 56.4252 19.148C56.4252 18.9771 56.4186 18.8079 56.4055 18.6404C56.3769 18.2744 56.3176 17.917 56.2302 17.5708ZM48.2299 21.4713C47.7106 21.075 47.3281 20.5086 47.1656 19.8552C47.1093 19.6287 47.0794 19.3919 47.0794 19.148C47.0794 17.535 48.387 16.2274 50 16.2274C51.613 16.2274 52.9206 17.535 52.9206 19.148C52.9206 19.8635 52.6633 20.5188 52.2362 21.0267C51.767 21.5846 51.0929 21.9644 50.3299 22.0502C50.2216 22.0623 50.1115 22.0686 50 22.0686C49.8884 22.0686 49.7783 22.0623 49.67 22.0502C49.1323 21.9897 48.6387 21.7832 48.2299 21.4713ZM50.1534 81.7701C50.1018 81.7674 50.0499 81.766 49.9977 81.766C48.3847 81.766 47.0772 83.0736 47.0772 84.6866C47.0772 86.2996 48.3847 87.6072 49.9977 87.6072C51.6107 87.6072 52.9183 86.2996 52.9183 84.6866C52.9183 83.1258 51.694 81.851 50.1534 81.7701ZM88.6728 42.1573C88.4464 41.7424 88.3177 41.2665 88.3177 40.7605C88.3177 39.8125 88.7694 38.97 89.4693 38.4364C89.9603 38.0622 90.5733 37.8399 91.2383 37.8399C92.8513 37.8399 94.1589 39.1475 94.1589 40.7605C94.1589 42.3735 92.8513 43.6811 91.2383 43.6811C90.1313 43.6811 89.1681 43.0652 88.6728 42.1573ZM11.6822 40.7605C11.6822 42.3735 10.3747 43.6811 8.76168 43.6811C7.1487 43.6811 5.84112 42.3735 5.84112 40.7605C5.84112 39.1475 7.1487 37.8399 8.76168 37.8399C10.3747 37.8399 11.6822 39.1475 11.6822 40.7605Z" fill="white"/>
<g id="stroke 2">
<path d="M10.293 34.5189C10.293 34.5189 10.293 34.5189 10.293 34.5189Z" fill="#F24E1E"/>
<path d="M43.7698 17.5707C43.7698 17.5707 43.7698 17.5707 43.7698 17.5707Z" fill="#F24E1E"/>
<path fill-rule="evenodd" clip-rule="evenodd" d="M0 40.7607C0 37.9908 1.28605 35.5234 3.28688 33.9199C3.50211 27.3033 5.92167 20.7597 11.2667 15.334C21.6633 4.78057 35.7751 5.28808 46.5235 11.1037C47.5906 10.6421 48.7672 10.3862 50 10.3862C51.2328 10.3862 52.4094 10.6421 53.4766 11.1038C64.2249 5.28819 78.3366 4.78042 88.7333 15.334C94.0783 20.7597 96.4979 27.3033 96.7131 33.9199C98.714 35.5234 100 37.9908 100 40.7607C100 44.8241 97.2353 48.2397 93.4833 49.2318C92.0484 52.3853 90.1872 55.3592 88.0002 58.0241C79.7149 68.1193 68.9418 76.8125 58.748 84.2361C58.7556 84.3855 58.7594 84.5357 58.7594 84.6867C58.7594 89.5258 54.8367 93.4486 49.9977 93.4486C45.1588 93.4486 41.236 89.5258 41.236 84.6867C41.236 84.5346 41.2399 84.3833 41.2476 84.2328C31.0552 76.81 20.2839 68.1179 11.9998 58.0241C9.81277 55.3592 7.95158 52.3853 6.51672 49.2318C2.76467 48.2397 0 44.8241 0 40.7607ZM12.9311 16.9738C8.02344 21.9555 5.81158 27.939 5.62102 34.0281C5.60922 34.4054 5.60517 34.783 5.60872 35.1608C5.42977 35.2618 5.25614 35.3711 5.08837 35.4882C3.42478 36.6495 2.33645 38.578 2.33645 40.7607C2.33645 43.9145 4.60864 46.5376 7.60527 47.0822C7.78833 47.1155 7.97408 47.141 8.16219 47.1584C8.28364 47.4507 8.40902 47.7416 8.53823 48.0309C9.90115 51.0827 11.6914 53.9653 13.8059 56.5417C22.2013 66.7713 33.2695 75.5907 43.7539 83.1643C43.6353 83.6523 43.5725 84.1622 43.5725 84.6867C43.5725 88.2354 46.4492 91.1121 49.9977 91.1121C53.5463 91.1121 56.423 88.2354 56.423 84.6867C56.423 84.1632 56.3603 83.6543 56.2422 83.1671C66.7278 75.5929 77.7976 66.7725 86.1941 56.5417C88.3087 53.9653 90.0989 51.0827 91.4618 48.0309C91.591 47.7415 91.7164 47.4507 91.8378 47.1584C92.0259 47.141 92.2117 47.1155 92.3947 47.0822C95.3914 46.5376 97.6636 43.9145 97.6636 40.7607C97.6636 38.578 96.5752 36.6495 94.9116 35.4882C94.7439 35.3711 94.5702 35.2618 94.3913 35.1608C94.3948 34.783 94.3908 34.4053 94.379 34.0281C94.1884 27.939 91.9766 21.9555 87.0689 16.9738C77.2526 7.00934 63.7401 7.73378 53.5124 13.7669C52.5029 13.1066 51.2963 12.7227 50 12.7227C48.7037 12.7227 47.4971 13.1066 46.4876 13.7669C36.2599 7.73367 22.7473 7.00948 12.9311 16.9738Z" fill="#F24E1E"/>
</g>
</g>
</g>
</svg>
