<svg width="100" height="100" viewBox="0 0 100 100" fill="none" xmlns="http://www.w3.org/2000/svg">
<g id="Spades">
<g id="&#226;&#153;&#160; spades">
<g id="fill">
<path d="M17.415 46.4296C25.4168 36.6799 36.0674 28.1615 46.4404 20.6648C47.4589 21.3433 48.6821 21.7387 49.9977 21.7387C51.3143 21.7387 52.5384 21.3426 53.5574 20.6633C63.931 28.1602 74.5826 36.6792 82.5849 46.4296C84.5422 48.8145 86.1456 51.4227 87.3326 54.137C85.8008 55.3113 84.813 57.16 84.813 59.2394C84.813 62.2603 86.8978 64.7943 89.707 65.4811C89.5966 70.6725 87.744 75.6786 83.7432 79.7398C75.964 87.6362 64.9603 87.443 56.2302 82.4292C56.3575 81.9246 56.4252 81.3962 56.4252 80.8519C56.4252 77.3033 53.5485 74.4266 50 74.4266C46.4514 74.4266 43.5747 77.3033 43.5747 80.8519C43.5747 81.3962 43.6424 81.9246 43.7698 82.4293C35.0397 87.4431 24.0358 87.6361 16.2568 79.7398C12.256 75.6786 10.4033 70.6725 10.2929 65.4811C13.1022 64.7943 15.1869 62.2603 15.1869 59.2394C15.1869 57.16 14.1992 55.3113 12.6673 54.137C13.8543 51.4227 15.4578 48.8145 17.415 46.4296Z" fill="#2C2C2C"/>
<path d="M47.0794 80.8519C47.0794 80.608 47.1093 80.3712 47.1656 80.1447C47.2019 79.9987 47.2492 79.8571 47.3065 79.7208C47.6505 78.9026 48.3564 78.2741 49.2238 78.0356C49.4709 77.9676 49.7312 77.9313 50 77.9313C51.613 77.9313 52.9206 79.2389 52.9206 80.8519C52.9206 82.4649 51.613 83.7725 50 83.7725C48.387 83.7725 47.0794 82.4649 47.0794 80.8519Z" fill="#2C2C2C"/>
<path d="M49.8463 18.23C48.3037 18.1512 47.0772 16.8755 47.0772 15.3133C47.0772 13.7002 48.3847 12.3926 49.9977 12.3926C51.6107 12.3926 52.9183 13.7002 52.9183 15.3133C52.9183 16.8741 51.694 18.1489 50.1533 18.2298" fill="#2C2C2C"/>
<path d="M10.5306 61.5635C10.8574 61.3144 11.1301 60.9979 11.328 60.6347C11.5539 60.2201 11.6822 59.7447 11.6822 59.2393C11.6822 57.6263 10.3747 56.3187 8.76169 56.3187C7.14871 56.3187 5.84113 57.6263 5.84113 59.2393C5.84113 60.8524 7.14871 62.16 8.76169 62.16C9.42664 62.16 10.0397 61.9377 10.5306 61.5635Z" fill="#2C2C2C"/>
<path d="M88.6728 57.8426C88.4605 58.2316 88.3342 58.6742 88.3192 59.1449C88.3182 59.1762 88.3177 59.2078 88.3177 59.2394C88.3177 60.1874 88.7694 61.0299 89.4693 61.5635C89.9602 61.9378 90.5733 62.16 91.2383 62.16C92.8513 62.16 94.1589 60.8524 94.1589 59.2393C94.1589 57.6263 92.8513 56.3187 91.2383 56.3187C90.1313 56.3187 89.1681 56.9347 88.6728 57.8426Z" fill="#2C2C2C"/>
</g>
<path id="stroke" fill-rule="evenodd" clip-rule="evenodd" d="M94.3913 64.839C94.4521 71.3157 92.2806 77.7358 87.0689 83.0261C77.2526 92.9905 63.7401 92.2661 53.5124 86.2329C52.5029 86.8932 51.2963 87.2771 50 87.2771C48.7037 87.2771 47.4971 86.8932 46.4876 86.233C36.2599 92.2662 22.7473 92.9904 12.9311 83.0261C7.71941 77.7358 5.54788 71.3157 5.60873 64.839C3.65537 63.7368 2.33646 61.642 2.33646 59.2392C2.33646 55.8927 4.89472 53.1438 8.1622 52.8414C9.56461 49.4665 11.4909 46.2788 13.8059 43.4581C22.2013 33.2286 33.2695 24.4091 43.7539 16.8356C43.6353 16.3475 43.5725 15.8377 43.5725 15.3131C43.5725 11.7645 46.4492 8.88776 49.9977 8.88776C53.5463 8.88776 56.423 11.7645 56.423 15.3131C56.423 15.8366 56.3603 16.3456 56.2422 16.8328C66.7278 24.4069 77.7976 33.2273 86.1941 43.4581C88.5091 46.2788 90.4354 49.4665 91.8378 52.8414C95.1053 53.1438 97.6636 55.8927 97.6636 59.2392C97.6636 61.642 96.3446 63.7368 94.3913 64.839ZM17.4151 46.4295C25.4168 36.6797 36.0675 28.1613 46.4404 20.6647C47.4589 21.3431 48.6822 21.7385 49.9977 21.7385C51.3143 21.7385 52.5384 21.3425 53.5574 20.6631C63.9311 28.1601 74.5826 36.679 82.5849 46.4295C82.8296 46.7276 83.0687 47.0292 83.3022 47.334C84.9366 49.468 86.294 51.7618 87.3327 54.1368C87.1412 54.2836 86.9582 54.4409 86.7846 54.6079C85.5693 55.7769 84.8131 57.4197 84.8131 59.2392C84.8131 59.428 84.8212 59.6149 84.8372 59.7996C85.0765 62.5696 87.0734 64.837 89.707 65.4809C89.7001 65.8054 89.6864 66.1291 89.6658 66.452C89.3567 71.2943 87.494 75.9322 83.7432 79.7396C82.7708 80.7266 81.748 81.5873 80.6856 82.3279C75.0844 86.2327 68.3811 86.8016 62.1495 84.9701C60.1073 84.3699 58.1157 83.512 56.2302 82.4291C56.2302 82.4291 56.2302 82.4291 56.2302 82.4291C56.2481 82.3581 56.2649 82.2866 56.2804 82.2147C56.3753 81.7754 56.4252 81.3195 56.4252 80.8518C56.4252 77.3032 53.5485 74.4264 50 74.4264C49.1128 74.4264 48.2677 74.6062 47.499 74.9313C45.6011 75.7341 44.1692 77.4229 43.7217 79.4792C43.6255 79.9214 43.5748 80.3807 43.5748 80.8518C43.5748 81.396 43.6424 81.9244 43.7698 82.4291C43.7698 82.4291 43.7698 82.4291 43.7698 82.4291C35.0398 87.4429 24.0358 87.636 16.2568 79.7396C12.256 75.6784 10.4033 70.6723 10.2929 65.481C10.9952 65.3093 11.6523 65.0221 12.2428 64.6407C13.1059 64.0833 13.8268 63.3247 14.3392 62.4313C14.8785 61.4909 15.1869 60.4011 15.1869 59.2392C15.1869 57.1599 14.1992 55.3112 12.6673 54.1368C12.6673 54.1368 12.6673 54.1368 12.6673 54.1368C13.8543 51.4226 15.4578 48.8143 17.4151 46.4295ZM47.0794 80.8518C47.0794 80.6079 47.1093 80.371 47.1656 80.1446C47.2019 79.9986 47.2492 79.857 47.3065 79.7206C47.6505 78.9025 48.3564 78.274 49.2238 78.0355C49.4709 77.9675 49.7312 77.9311 50 77.9311C51.613 77.9311 52.9206 79.2387 52.9206 80.8518C52.9206 82.4648 51.613 83.7724 50 83.7724C48.387 83.7724 47.0794 82.4648 47.0794 80.8518ZM47.0772 15.3131C47.0772 16.8753 48.3037 18.151 49.8463 18.2299L50.1533 18.2297C51.694 18.1487 52.9183 16.8739 52.9183 15.3131C52.9183 13.7001 51.6107 12.3925 49.9977 12.3925C48.3847 12.3925 47.0772 13.7001 47.0772 15.3131ZM10.5306 61.5634C10.8574 61.3142 11.1301 60.9977 11.328 60.6346C11.5539 60.22 11.6823 59.7446 11.6823 59.2392C11.6823 57.6262 10.3747 56.3186 8.76169 56.3186C7.14871 56.3186 5.84113 57.6262 5.84113 59.2392C5.84113 60.8522 7.14871 62.1598 8.76169 62.1598C9.42664 62.1598 10.0397 61.9376 10.5306 61.5634ZM88.3192 59.1447C88.3342 58.674 88.4605 58.2314 88.6728 57.8424C89.1681 56.9345 90.1313 56.3186 91.2383 56.3186C92.8513 56.3186 94.1589 57.6262 94.1589 59.2392C94.1589 60.8522 92.8513 62.1598 91.2383 62.1598C90.5734 62.1598 89.9603 61.9376 89.4693 61.5633C88.7694 61.0298 88.3177 60.1873 88.3177 59.2392C88.3177 59.2076 88.3182 59.1761 88.3192 59.1447Z" fill="white"/>
<path id="stroke 2" fill-rule="evenodd" clip-rule="evenodd" d="M88.0002 41.9759C79.7149 31.8806 68.9418 23.1875 58.748 15.7639C58.7556 15.6145 58.7594 15.4643 58.7594 15.3132C58.7594 10.4742 54.8367 6.55139 49.9977 6.55139C45.1588 6.55139 41.236 10.4742 41.236 15.3132C41.236 15.4653 41.2399 15.6167 41.2476 15.7672C31.0552 23.19 20.2839 31.8821 11.9998 41.9759C9.81277 44.6407 7.95158 47.6147 6.51672 50.7682C2.76467 51.7603 0 55.1759 0 59.2393C0 62.0092 1.28605 64.4766 3.28688 66.0801C3.5021 72.6967 5.92167 79.2403 11.2667 84.666C21.6633 95.2194 35.7751 94.7119 46.5235 88.8963C47.5906 89.3579 48.7672 89.6137 50 89.6137C51.2328 89.6137 52.4094 89.3579 53.4766 88.8962C64.2249 94.7118 78.3366 95.2196 88.7333 84.666C94.0783 79.2403 96.4979 72.6967 96.7131 66.0801C98.714 64.4766 100 62.0092 100 59.2393C100 55.1759 97.2353 51.7603 93.4833 50.7682C92.0484 47.6147 90.1872 44.6407 88.0002 41.9759ZM91.8378 52.8416C91.7164 52.5493 91.591 52.2585 91.4618 51.9691C90.0989 48.9173 88.3087 46.0347 86.1941 43.4582C77.7976 33.2274 66.7278 24.4071 56.2422 16.8329C56.3603 16.3457 56.423 15.8368 56.423 15.3132C56.423 11.7646 53.5463 8.88789 49.9977 8.88789C46.4492 8.88789 43.5725 11.7646 43.5725 15.3132C43.5725 15.8378 43.6353 16.3477 43.7539 16.8357C33.2695 24.4093 22.2013 33.2287 13.8059 43.4582C11.6914 46.0347 9.90115 48.9172 8.53823 51.9691C8.40902 52.2584 8.28364 52.5493 8.16219 52.8416C7.97408 52.859 7.78833 52.8845 7.60527 52.9178C4.60864 53.4624 2.33645 56.0855 2.33645 59.2393C2.33645 61.422 3.42478 63.3505 5.08837 64.5118C5.25614 64.6289 5.42977 64.7382 5.60872 64.8392C5.60517 65.217 5.60922 65.5946 5.62102 65.9718C5.81158 72.061 8.02344 78.0445 12.9311 83.0262C22.7473 92.9905 36.2599 92.2663 46.4876 86.2331C47.4971 86.8934 48.7037 87.2772 50 87.2772C51.2963 87.2772 52.5029 86.8934 53.5124 86.2331C63.7401 92.2662 77.2526 92.9907 87.0689 83.0262C91.9766 78.0445 94.1884 72.061 94.379 65.9719C94.3908 65.5946 94.3948 65.217 94.3913 64.8392C94.5702 64.7382 94.7439 64.6289 94.9116 64.5118C96.5752 63.3505 97.6636 61.422 97.6636 59.2393C97.6636 56.0855 95.3914 53.4624 92.3947 52.9178C92.2117 52.8845 92.0259 52.859 91.8378 52.8416Z" fill="#2C2C2C"/>
</g>
</g>
</svg>
